{"asset":{"version":"2.0","generator":"Blockbench 4.11.2 glTF exporter"},"scenes":[{"nodes":[17],"name":"blockbench_export"}],"scene":0,"nodes":[{"translation":[0,0,-0.0625],"name":"Mouth","mesh":0},{"name":"Mouth_selection","mesh":1},{"translation":[0,0,-0.0625],"name":"MoutHBottom","mesh":2},{"translation":[0,0,-0.0625],"name":"MouthFront","mesh":3},{"name":"Mouth","children":[0,1,2,3]},{"name":"Lips","mesh":4},{"name":"MouthHole","mesh":5},{"name":"LipsOutside","mesh":6},{"translation":[0.015625,0,-0.203125],"name":"MouthFrowning","children":[5,6,7]},{"rotation":[0.03158855642662016,0.0812298380940046,-0.3610588521249966,0.9284612979593085],"translation":[0.40625,0.59375,0.390625],"name":"Brows","mesh":7},{"translation":[0,-0.125,-0.6875],"name":"Brows_Frowning","children":[9]},{"translation":[0,0.5625,-0.6875],"name":"PumpkinTop","mesh":8},{"translation":[0,0.9375,-0.6875],"name":"Stem","mesh":9},{"translation":[-0.3125,0.4375,-0.25],"name":"Eye","mesh":10},{"translation":[0.3125,0.4375,-0.25],"name":"Eye","mesh":11},{"translation":[0.3125,0.6875,-0.3125],"name":"Pustules","mesh":12},{"translation":[0,0.125,0.6875],"name":"PumpkinFace","children":[4,8,10,11,12,13,14,15]},{"children":[16]}],"bufferViews":[{"buffer":0,"byteOffset":0,"byteLength":1728,"target":34962,"byteStride":12},{"buffer":0,"byteOffset":1728,"byteLength":1728,"target":34962,"byteStride":12},{"buffer":0,"byteOffset":3456,"byteLength":1152,"target":34962,"byteStride":8},{"buffer":0,"byteOffset":4608,"byteLength":432,"target":34963},{"buffer":0,"byteOffset":5040,"byteLength":96,"target":34962,"byteStride":12},{"buffer":0,"byteOffset":5136,"byteLength":96,"target":34962,"byteStride":12},{"buffer":0,"byteOffset":5232,"byteLength":64,"target":34962,"byteStride":8},{"buffer":0,"byteOffset":5296,"byteLength":24,"target":34963},{"buffer":0,"byteOffset":5320,"byteLength":384,"target":34962,"byteStride":12},{"buffer":0,"byteOffset":5704,"byteLength":384,"target":34962,"byteStride":12},{"buffer":0,"byteOffset":6088,"byteLength":256,"target":34962,"byteStride":8},{"buffer":0,"byteOffset":6344,"byteLength":96,"target":34963},{"buffer":0,"byteOffset":6440,"byteLength":288,"target":34962,"byteStride":12},{"buffer":0,"byteOffset":6728,"byteLength":288,"target":34962,"byteStride":12},{"buffer":0,"byteOffset":7016,"byteLength":192,"target":34962,"byteStride":8},{"buffer":0,"byteOffset":7208,"byteLength":72,"target":34963},{"buffer":0,"byteOffset":7280,"byteLength":1680,"target":34962,"byteStride":12},{"buffer":0,"byteOffset":8960,"byteLength":1680,"target":34962,"byteStride":12},{"buffer":0,"byteOffset":10640,"byteLength":1120,"target":34962,"byteStride":8},{"buffer":0,"byteOffset":11760,"byteLength":420,"target":34963},{"buffer":0,"byteOffset":12180,"byteLength":144,"target":34962,"byteStride":12},{"buffer":0,"byteOffset":12324,"byteLength":144,"target":34962,"byteStride":12},{"buffer":0,"byteOffset":12468,"byteLength":96,"target":34962,"byteStride":8},{"buffer":0,"byteOffset":12564,"byteLength":36,"target":34963},{"buffer":0,"byteOffset":12600,"byteLength":384,"target":34962,"byteStride":12},{"buffer":0,"byteOffset":12984,"byteLength":384,"target":34962,"byteStride":12},{"buffer":0,"byteOffset":13368,"byteLength":256,"target":34962,"byteStride":8},{"buffer":0,"byteOffset":13624,"byteLength":96,"target":34963},{"buffer":0,"byteOffset":13720,"byteLength":576,"target":34962,"byteStride":12},{"buffer":0,"byteOffset":14296,"byteLength":576,"target":34962,"byteStride":12},{"buffer":0,"byteOffset":14872,"byteLength":384,"target":34962,"byteStride":8},{"buffer":0,"byteOffset":15256,"byteLength":144,"target":34963},{"buffer":0,"byteOffset":15400,"byteLength":6480,"target":34962,"byteStride":12},{"buffer":0,"byteOffset":21880,"byteLength":6480,"target":34962,"byteStride":12},{"buffer":0,"byteOffset":28360,"byteLength":4320,"target":34962,"byteStride":8},{"buffer":0,"byteOffset":32680,"byteLength":1512,"target":34963},{"buffer":0,"byteOffset":34192,"byteLength":2880,"target":34962,"byteStride":12},{"buffer":0,"byteOffset":37072,"byteLength":2880,"target":34962,"byteStride":12},{"buffer":0,"byteOffset":39952,"byteLength":1920,"target":34962,"byteStride":8},{"buffer":0,"byteOffset":41872,"byteLength":576,"target":34963},{"buffer":0,"byteOffset":42448,"byteLength":3168,"target":34962,"byteStride":12},{"buffer":0,"byteOffset":45616,"byteLength":3168,"target":34962,"byteStride":12},{"buffer":0,"byteOffset":48784,"byteLength":2112,"target":34962,"byteStride":8},{"buffer":0,"byteOffset":50896,"byteLength":720,"target":34963},{"buffer":0,"byteOffset":51616,"byteLength":3168,"target":34962,"byteStride":12},{"buffer":0,"byteOffset":54784,"byteLength":3168,"target":34962,"byteStride":12},{"buffer":0,"byteOffset":57952,"byteLength":2112,"target":34962,"byteStride":8},{"buffer":0,"byteOffset":60064,"byteLength":720,"target":34963},{"buffer":0,"byteOffset":60784,"byteLength":9504,"target":34962,"byteStride":12},{"buffer":0,"byteOffset":70288,"byteLength":9504,"target":34962,"byteStride":12},{"buffer":0,"byteOffset":79792,"byteLength":6336,"target":34962,"byteStride":8},{"buffer":0,"byteOffset":86128,"byteLength":2160,"target":34963},{"buffer":0,"byteOffset":88288,"byteLength":20},{"buffer":0,"byteOffset":88308,"byteLength":60},{"buffer":0,"byteOffset":88368,"byteLength":20},{"buffer":0,"byteOffset":88388,"byteLength":60},{"buffer":0,"byteOffset":88448,"byteLength":4},{"buffer":0,"byteOffset":88452,"byteLength":12},{"buffer":0,"byteOffset":88464,"byteLength":4},{"buffer":0,"byteOffset":88468,"byteLength":12},{"buffer":0,"byteOffset":88480,"byteLength":32},{"buffer":0,"byteOffset":88512,"byteLength":96},{"buffer":0,"byteOffset":88608,"byteLength":12},{"buffer":0,"byteOffset":88620,"byteLength":36},{"buffer":0,"byteOffset":88656,"byteLength":12},{"buffer":0,"byteOffset":88668,"byteLength":36},{"buffer":0,"byteOffset":88704,"byteLength":12},{"buffer":0,"byteOffset":88716,"byteLength":36},{"buffer":0,"byteOffset":88752,"byteLength":12},{"buffer":0,"byteOffset":88764,"byteLength":36}],"buffers":[{"byteLength":88800,"uri":"data:application/octet-stream;base64,"}],"accessors":[{"bufferView":0,"componentType":5126,"count":144,"max":[0.2796463668346405,0.3125,-0.0625],"min":[-0.2796463668346405,-0.05929270759224892,-0.375],"type":"VEC3"},{"bufferView":1,"componentType":5126,"count":144,"max":[0.9782918691635132,0.9893552660942078,0],"min":[-0.9782918691635132,-1,-1],"type":"VEC3"},{"bufferView":2,"componentType":5126,"count":144,"max":[0.625,0.8125],"min":[0,0],"type":"VEC2"},{"bufferView":3,"componentType":5123,"count":216,"max":[143],"min":[0],"type":"SCALAR"},{"bufferView":4,"componentType":5126,"count":8,"max":[0.25,0.25,-0.1875],"min":[-0.25,0,-0.1875],"type":"VEC3"},{"bufferView":5,"componentType":5126,"count":8,"max":[0,0,1],"min":[0,0,1],"type":"VEC3"},{"bufferView":6,"componentType":5126,"count":8,"max":[0.5,0.25],"min":[0,0],"type":"VEC2"},{"bufferView":7,"componentType":5123,"count":12,"max":[7],"min":[0],"type":"SCALAR"},{"bufferView":8,"componentType":5126,"count":32,"max":[0.2270284742116928,0.02297152951359749,-0.0625],"min":[-0.2270284742116928,-0.05929270759224892,-0.375],"type":"VEC3"},{"bufferView":9,"componentType":5126,"count":32,"max":[0.3406763970851898,-0.9401805996894836,0],"min":[-0.3406763970851898,-0.9401805996894836,0],"type":"VEC3"},{"bufferView":10,"componentType":5126,"count":32,"max":[0.3125,0.5625],"min":[0,0.00852501392364502],"type":"VEC2"},{"bufferView":11,"componentType":5123,"count":48,"max":[31],"min":[0],"type":"SCALAR"},{"bufferView":12,"componentType":5126,"count":24,"max":[0.2796463668346405,0.3125,-0.0625],"min":[-0.2796463668346405,-0.05929270759224892,-0.0625],"type":"VEC3"},{"bufferView":13,"componentType":5126,"count":24,"max":[0,0,1],"min":[0,0,1],"type":"VEC3"},{"bufferView":14,"componentType":5126,"count":24,"max":[0.5608937740325928,0.3717937469482422],"min":[0.001606249948963523,0],"type":"VEC2"},{"bufferView":15,"componentType":5123,"count":36,"max":[23],"min":[0],"type":"SCALAR"},{"bufferView":16,"componentType":5126,"count":140,"max":[0.21157044172286987,0.3256339430809021,0.125],"min":[-0.2575657069683075,0.01811605505645275,-0.1875],"type":"VEC3"},{"bufferView":17,"componentType":5126,"count":140,"max":[1,1,0],"min":[-1,-1,-1],"type":"VEC3"},{"bufferView":18,"componentType":5126,"count":140,"max":[0.5625,0.5625],"min":[0,0],"type":"VEC2"},{"bufferView":19,"componentType":5123,"count":210,"max":[139],"min":[0],"type":"SCALAR"},{"bufferView":20,"componentType":5126,"count":12,"max":[0.16414734721183777,0.2734375,0.0625],"min":[-0.21089676022529602,0.0390625,0.0625],"type":"VEC3"},{"bufferView":21,"componentType":5126,"count":12,"max":[0,0,1],"min":[0,0,1],"type":"VEC3"},{"bufferView":22,"componentType":5126,"count":12,"max":[0.40627187490463257,0.234375],"min":[0.03122812509536743,0],"type":"VEC2"},{"bufferView":23,"componentType":5123,"count":18,"max":[11],"min":[0],"type":"SCALAR"},{"bufferView":24,"componentType":5126,"count":32,"max":[0.21157044172286987,0.3256339430809021,0.125],"min":[-0.2575657069683075,0.01811605505645275,0.125],"type":"VEC3"},{"bufferView":25,"componentType":5126,"count":32,"max":[0,0,1],"min":[0,0,1],"type":"VEC3"},{"bufferView":26,"componentType":5126,"count":32,"max":[0.4845687448978424,0.3075125217437744],"min":[0.01543125044554472,0],"type":"VEC2"},{"bufferView":27,"componentType":5123,"count":48,"max":[31],"min":[0],"type":"SCALAR"},{"bufferView":28,"componentType":5126,"count":48,"max":[0.03125,0.046875,0.03125],"min":[-0.6434333324432373,-0.5849810242652893,-0.1481660157442093],"type":"VEC3"},{"bufferView":29,"componentType":5126,"count":48,"max":[1,1,1],"min":[-1,-1,-1],"type":"VEC3"},{"bufferView":30,"componentType":5126,"count":48,"max":[0.625,0.625],"min":[0,0],"type":"VEC2"},{"bufferView":31,"componentType":5123,"count":72,"max":[47],"min":[0],"type":"SCALAR"},{"bufferView":32,"componentType":5126,"count":540,"max":[0.625,0.4375,0.5],"min":[-0.625,-0.6875,-0.5],"type":"VEC3"},{"bufferView":33,"componentType":5126,"count":540,"max":[1,1,1],"min":[-1,-0.9999164938926697,-1],"type":"VEC3"},{"bufferView":34,"componentType":5126,"count":540,"max":[0.8186134099960327,0.8125],"min":[0,0],"type":"VEC2"},{"bufferView":35,"componentType":5123,"count":756,"max":[539],"min":[0],"type":"SCALAR"},{"bufferView":36,"componentType":5126,"count":240,"max":[0.0625,0.3125,0.0625],"min":[-0.0625,0,-0.125],"type":"VEC3"},{"bufferView":37,"componentType":5126,"count":240,"max":[1,1,1],"min":[-1,-1,-1],"type":"VEC3"},{"bufferView":38,"componentType":5126,"count":240,"max":[0.6875,0.75],"min":[0.012268749997019768,0],"type":"VEC2"},{"bufferView":39,"componentType":5123,"count":288,"max":[239],"min":[0],"type":"SCALAR"},{"bufferView":40,"componentType":5126,"count":264,"max":[0.0625,0.0625,0.0625],"min":[-0.0625,-0.0625,-0.0625],"type":"VEC3"},{"bufferView":41,"componentType":5126,"count":264,"max":[0.9659258127212524,0.9659258127212524,0.9659258127212524],"min":[-0.9659258127212524,-0.9659258127212524,-0.9659258127212524],"type":"VEC3"},{"bufferView":42,"componentType":5126,"count":264,"max":[0.5315001010894775,0.5],"min":[0.010350123047828674,0],"type":"VEC2"},{"bufferView":43,"componentType":5123,"count":360,"max":[263],"min":[0],"type":"SCALAR"},{"bufferView":44,"componentType":5126,"count":264,"max":[0.0625,0.0625,0.0625],"min":[-0.0625,-0.0625,-0.0625],"type":"VEC3"},{"bufferView":45,"componentType":5126,"count":264,"max":[0.9659258127212524,0.9659258127212524,0.9659258127212524],"min":[-0.9659258127212524,-0.9659258127212524,-0.9659258127212524],"type":"VEC3"},{"bufferView":46,"componentType":5126,"count":264,"max":[0.5315001010894775,0.5],"min":[0.010350123047828674,0],"type":"VEC2"},{"bufferView":47,"componentType":5123,"count":360,"max":[263],"min":[0],"type":"SCALAR"},{"bufferView":48,"componentType":5126,"count":792,"max":[0.10312499850988388,0.140625,0.05312500149011612],"min":[-0.05312500149011612,-0.05312500149011612,-0.078125],"type":"VEC3"},{"bufferView":49,"componentType":5126,"count":792,"max":[0.9659258127212524,0.9659258127212524,0.9659258127212524],"min":[-0.9659258127212524,-0.9659258127212524,-0.9659258127212524],"type":"VEC3"},{"bufferView":50,"componentType":5126,"count":792,"max":[0.865836501121521,0.875],"min":[0.009238490834832191,0],"type":"VEC2"},{"bufferView":51,"componentType":5123,"count":1080,"max":[791],"min":[0],"type":"SCALAR"},{"bufferView":52,"componentType":5126,"count":5,"max":[0.5833333134651184],"min":[0],"type":"SCALAR"},{"bufferView":53,"componentType":5126,"count":5,"max":[0,0.3125,0.9375],"min":[0,0.125,0.6875],"type":"VEC3"},{"bufferView":54,"componentType":5126,"count":5,"max":[0.5833333134651184],"min":[0],"type":"SCALAR"},{"bufferView":55,"componentType":5126,"count":5,"max":[1.1749999523162842,1.2999999523162842,1.25],"min":[0.925000011920929,0.8500000238418579,0.925000011920929],"type":"VEC3"},{"bufferView":56,"componentType":5126,"count":1,"max":[0],"min":[0],"type":"SCALAR"},{"bufferView":57,"componentType":5126,"count":1,"max":[0,0,0],"min":[0,0,0],"type":"VEC3"},{"bufferView":58,"componentType":5126,"count":1,"max":[0],"min":[0],"type":"SCALAR"},{"bufferView":59,"componentType":5126,"count":1,"max":[0,0,0],"min":[0,0,0],"type":"VEC3"},{"bufferView":60,"componentType":5126,"count":8,"max":[0.9166666865348816],"min":[0.0833333358168602],"type":"SCALAR"},{"bufferView":61,"componentType":5126,"count":8,"max":[0,0.125,0.6875],"min":[-0.03125,0.125,0.5],"type":"VEC3"},{"bufferView":62,"componentType":5126,"count":3,"max":[0.5],"min":[0.0833333358168602],"type":"SCALAR"},{"bufferView":63,"componentType":5126,"count":3,"max":[1.225000023841858,1.0499999523162842,1],"min":[1,1,0.6000000238418579],"type":"VEC3"},{"bufferView":64,"componentType":5126,"count":3,"max":[0.9166666865348816],"min":[0],"type":"SCALAR"},{"bufferView":65,"componentType":5126,"count":3,"max":[1,1,1],"min":[0,0,0],"type":"VEC3"},{"bufferView":66,"componentType":5126,"count":3,"max":[0.9166666865348816],"min":[0],"type":"SCALAR"},{"bufferView":67,"componentType":5126,"count":3,"max":[1,1,1],"min":[0,0,0],"type":"VEC3"},{"bufferView":68,"componentType":5126,"count":3,"max":[0.9166666865348816],"min":[0],"type":"SCALAR"},{"bufferView":69,"componentType":5126,"count":3,"max":[1,1,1],"min":[0,0,0],"type":"VEC3"}],"materials":[{"pbrMetallicRoughness":{"metallicFactor":0,"roughnessFactor":1,"baseColorTexture":{"index":0}},"alphaMode":"MASK","alphaCutoff":0.05,"doubleSided":true},{"pbrMetallicRoughness":{"metallicFactor":0,"roughnessFactor":1,"baseColorTexture":{"index":1}},"alphaMode":"MASK","alphaCutoff":0.05,"doubleSided":true},{"pbrMetallicRoughness":{"metallicFactor":0,"roughnessFactor":1,"baseColorTexture":{"index":2}},"alphaMode":"MASK","alphaCutoff":0.05,"doubleSided":true},{"pbrMetallicRoughness":{"metallicFactor":0,"roughnessFactor":1,"baseColorTexture":{"index":3}},"alphaMode":"MASK","alphaCutoff":0.05,"doubleSided":true},{"pbrMetallicRoughness":{"metallicFactor":0,"roughnessFactor":1,"baseColorTexture":{"index":4}},"alphaMode":"MASK","alphaCutoff":0.05,"doubleSided":true},{"pbrMetallicRoughness":{"metallicFactor":0,"roughnessFactor":1,"baseColorTexture":{"index":5}},"alphaMode":"MASK","alphaCutoff":0.05,"doubleSided":true},{"pbrMetallicRoughness":{"metallicFactor":0,"roughnessFactor":1,"baseColorTexture":{"index":6}},"alphaMode":"MASK","alphaCutoff":0.05,"doubleSided":true},{"pbrMetallicRoughness":{"metallicFactor":0,"roughnessFactor":1,"baseColorTexture":{"index":7}},"alphaMode":"MASK","alphaCutoff":0.05,"doubleSided":true},{"pbrMetallicRoughness":{"metallicFactor":0,"roughnessFactor":1,"baseColorTexture":{"index":8}},"alphaMode":"MASK","alphaCutoff":0.05,"doubleSided":true},{"pbrMetallicRoughness":{"metallicFactor":0,"roughnessFactor":1,"baseColorTexture":{"index":9}},"alphaMode":"MASK","alphaCutoff":0.05,"doubleSided":true},{"pbrMetallicRoughness":{"metallicFactor":0,"roughnessFactor":1,"baseColorTexture":{"index":10}},"alphaMode":"MASK","alphaCutoff":0.05,"doubleSided":true},{"pbrMetallicRoughness":{"metallicFactor":0,"roughnessFactor":1,"baseColorTexture":{"index":11}},"alphaMode":"MASK","alphaCutoff":0.05,"doubleSided":true},{"pbrMetallicRoughness":{"metallicFactor":0,"roughnessFactor":1,"baseColorTexture":{"index":12}},"alphaMode":"MASK","alphaCutoff":0.05,"doubleSided":true}],"textures":[{"sampler":0,"source":0,"name":"Mouth"},{"sampler":1,"source":1,"name":"MouthInside"},{"sampler":2,"source":2,"name":"MouthBottom"},{"sampler":3,"source":3,"name":"MouthFront"},{"sampler":4,"source":4,"name":"Lips"},{"sampler":5,"source":5,"name":"MouthHoleFrown"},{"sampler":6,"source":6,"name":"LipsOutsideFrown"},{"sampler":7,"source":7,"name":"Brows"},{"sampler":8,"source":8,"name":"Pumpkin"},{"sampler":9,"source":9,"name":"Stem"},{"sampler":10,"source":10,"name":"Eye"},{"sampler":11,"source":11,"name":"Eye2"},{"sampler":12,"source":12,"name":"Pustules"}],"samplers":[{"magFilter":9728,"minFilter":9728,"wrapS":33071,"wrapT":33071},{"magFilter":9728,"minFilter":9728,"wrapS":33071,"wrapT":33071},{"magFilter":9728,"minFilter":9728,"wrapS":33071,"wrapT":33071},{"magFilter":9728,"minFilter":9728,"wrapS":33071,"wrapT":33071},{"magFilter":9728,"minFilter":9728,"wrapS":33071,"wrapT":33071},{"magFilter":9728,"minFilter":9728,"wrapS":33071,"wrapT":33071},{"magFilter":9728,"minFilter":9728,"wrapS":33071,"wrapT":33071},{"magFilter":9728,"minFilter":9728,"wrapS":33071,"wrapT":33071},{"magFilter":9728,"minFilter":9728,"wrapS":33071,"wrapT":33071},{"magFilter":9728,"minFilter":9728,"wrapS":33071,"wrapT":33071},{"magFilter":9728,"minFilter":9728,"wrapS":33071,"wrapT":33071},{"magFilter":9728,"minFilter":9728,"wrapS":33071,"wrapT":33071},{"magFilter":9728,"minFilter":9728,"wrapS":33071,"wrapT":33071}],"images":[{"mimeType":"image/png","uri":"data:image/png;base64,"},{"mimeType":"image/png","uri":"data:image/png;base64,"},{"mimeType":"image/png","uri":"data:image/png;base64,"},{"mimeType":"image/png","uri":"data:image/png;base64,"},{"mimeType":"image/png","uri":"data:image/png;base64,"},{"mimeType":"image/png","uri":"data:image/png;base64,"},{"mimeType":"image/png","uri":"data:image/png;base64,"},{"mimeType":"image/png","uri":"data:image/png;base64,"},{"mimeType":"image/png","uri":"data:image/png;base64,"},{"mimeType":"image/png","uri":"data:image/png;base64,"},{"mimeType":"image/png","uri":"data:image/png;base64,"},{"mimeType":"image/png","uri":"data:image/png;base64,"},{"mimeType":"image/png","uri":"data:image/png;base64,"}],"meshes":[{"primitives":[{"mode":4,"attributes":{"POSITION":0,"NORMAL":1,"TEXCOORD_0":2},"indices":3,"material":0}]},{"primitives":[{"mode":4,"attributes":{"POSITION":4,"NORMAL":5,"TEXCOORD_0":6},"indices":7,"material":1}]},{"primitives":[{"mode":4,"attributes":{"POSITION":8,"NORMAL":9,"TEXCOORD_0":10},"indices":11,"material":2}]},{"primitives":[{"mode":4,"attributes":{"POSITION":12,"NORMAL":13,"TEXCOORD_0":14},"indices":15,"material":3}]},{"primitives":[{"mode":4,"attributes":{"POSITION":16,"NORMAL":17,"TEXCOORD_0":18},"indices":19,"material":4}]},{"primitives":[{"mode":4,"attributes":{"POSITION":20,"NORMAL":21,"TEXCOORD_0":22},"indices":23,"material":5}]},{"primitives":[{"mode":4,"attributes":{"POSITION":24,"NORMAL":25,"TEXCOORD_0":26},"indices":27,"material":6}]},{"primitives":[{"mode":4,"attributes":{"POSITION":28,"NORMAL":29,"TEXCOORD_0":30},"indices":31,"material":7}]},{"primitives":[{"mode":4,"attributes":{"POSITION":32,"NORMAL":33,"TEXCOORD_0":34},"indices":35,"material":8}]},{"primitives":[{"mode":4,"attributes":{"POSITION":36,"NORMAL":37,"TEXCOORD_0":38},"indices":39,"material":9}]},{"primitives":[{"mode":4,"attributes":{"POSITION":40,"NORMAL":41,"TEXCOORD_0":42},"indices":43,"material":10}]},{"primitives":[{"mode":4,"attributes":{"POSITION":44,"NORMAL":45,"TEXCOORD_0":46},"indices":47,"material":11}]},{"primitives":[{"mode":4,"attributes":{"POSITION":48,"NORMAL":49,"TEXCOORD_0":50},"indices":51,"material":12}]}],"animations":[{"name":"Move","samplers":[{"input":52,"output":53,"interpolation":"LINEAR"},{"input":54,"output":55,"interpolation":"LINEAR"},{"input":56,"output":57,"interpolation":"STEP"},{"input":58,"output":59,"interpolation":"STEP"}],"channels":[{"sampler":0,"target":{"node":16,"path":"translation"}},{"sampler":1,"target":{"node":16,"path":"scale"}},{"sampler":2,"target":{"node":10,"path":"scale"}},{"sampler":3,"target":{"node":8,"path":"scale"}}]},{"name":"Hurt","samplers":[{"input":60,"output":61,"interpolation":"LINEAR"},{"input":62,"output":63,"interpolation":"LINEAR"},{"input":64,"output":65,"interpolation":"STEP"},{"input":66,"output":67,"interpolation":"STEP"},{"input":68,"output":69,"interpolation":"STEP"}],"channels":[{"sampler":0,"target":{"node":16,"path":"translation"}},{"sampler":1,"target":{"node":16,"path":"scale"}},{"sampler":2,"target":{"node":4,"path":"scale"}},{"sampler":3,"target":{"node":10,"path":"scale"}},{"sampler":4,"target":{"node":8,"path":"scale"}}]}]}