{"asset":{"version":"2.0","generator":"Blockbench 4.11.2 glTF exporter"},"scenes":[{"nodes":[6],"name":"blockbench_export"}],"scene":0,"nodes":[{"name":"plane-col","mesh":0},{"translation":[-0.6875,0,0],"name":"cylinder-col","mesh":1},{"rotation":[0,-0.3826834323650898,0,0.9238795325112867],"translation":[0.84375,-0.015625,0.5625],"name":"cuboid-col","mesh":2},{"translation":[0.390625,0,-0.8125],"name":"cone","mesh":3},{"translation":[-0.171875,0,-0.8125],"name":"cone","mesh":4},{"translation":[0.234375,0,-0.421875],"name":"cone","mesh":5},{"children":[0,1,2,3,4,5]}],"bufferViews":[{"buffer":0,"byteOffset":0,"byteLength":48,"target":34962,"byteStride":12},{"buffer":0,"byteOffset":48,"byteLength":48,"target":34962,"byteStride":12},{"buffer":0,"byteOffset":96,"byteLength":32,"target":34962,"byteStride":8},{"buffer":0,"byteOffset":128,"byteLength":12,"target":34963},{"buffer":0,"byteOffset":140,"byteLength":1440,"target":34962,"byteStride":12},{"buffer":0,"byteOffset":1580,"byteLength":1440,"target":34962,"byteStride":12},{"buffer":0,"byteOffset":3020,"byteLength":960,"target":34962,"byteStride":8},{"buffer":0,"byteOffset":3980,"byteLength":288,"target":34963},{"buffer":0,"byteOffset":4268,"byteLength":216,"target":34962,"byteStride":12},{"buffer":0,"byteOffset":4484,"byteLength":216,"target":34962,"byteStride":12},{"buffer":0,"byteOffset":4700,"byteLength":144,"target":34962,"byteStride":8},{"buffer":0,"byteOffset":4844,"byteLength":48,"target":34963},{"buffer":0,"byteOffset":4892,"byteLength":864,"target":34962,"byteStride":12},{"buffer":0,"byteOffset":5756,"byteLength":864,"target":34962,"byteStride":12},{"buffer":0,"byteOffset":6620,"byteLength":576,"target":34962,"byteStride":8},{"buffer":0,"byteOffset":7196,"byteLength":144,"target":34963},{"buffer":0,"byteOffset":7340,"byteLength":864,"target":34962,"byteStride":12},{"buffer":0,"byteOffset":8204,"byteLength":864,"target":34962,"byteStride":12},{"buffer":0,"byteOffset":9068,"byteLength":576,"target":34962,"byteStride":8},{"buffer":0,"byteOffset":9644,"byteLength":144,"target":34963},{"buffer":0,"byteOffset":9788,"byteLength":864,"target":34962,"byteStride":12},{"buffer":0,"byteOffset":10652,"byteLength":864,"target":34962,"byteStride":12},{"buffer":0,"byteOffset":11516,"byteLength":576,"target":34962,"byteStride":8},{"buffer":0,"byteOffset":12092,"byteLength":144,"target":34963}],"buffers":[{"byteLength":12236,"uri":"data:application/octet-stream;base64,"}],"accessors":[{"bufferView":0,"componentType":5126,"count":4,"max":[1,0,1],"min":[-1,0,-1],"type":"VEC3"},{"bufferView":1,"componentType":5126,"count":4,"max":[0,1,0],"min":[0,1,0],"type":"VEC3"},{"bufferView":2,"componentType":5126,"count":4,"max":[0.5,0.5],"min":[0,0],"type":"VEC2"},{"bufferView":3,"componentType":5123,"count":6,"max":[3],"min":[0],"type":"SCALAR"},{"bufferView":4,"componentType":5126,"count":120,"max":[0.15625,0.5,0.15625],"min":[-0.15625,0,-0.15625],"type":"VEC3"},{"bufferView":5,"componentType":5126,"count":120,"max":[1,1,1],"min":[-1,-1,-1],"type":"VEC3"},{"bufferView":6,"componentType":5126,"count":120,"max":[0.2588191032409668,0.2588191032409668],"min":[0,0],"type":"VEC2"},{"bufferView":7,"componentType":5123,"count":144,"max":[119],"min":[0],"type":"SCALAR"},{"bufferView":8,"componentType":5126,"count":18,"max":[0.125,0.375,0.125],"min":[-0.5625,0,-0.125],"type":"VEC3"},{"bufferView":9,"componentType":5126,"count":18,"max":[1,0.8778955936431885,1],"min":[-0.47885212302207947,-1,-1],"type":"VEC3"},{"bufferView":10,"componentType":5126,"count":18,"max":[0.125,0.1875],"min":[0,0],"type":"VEC2"},{"bufferView":11,"componentType":5123,"count":24,"max":[17],"min":[0],"type":"SCALAR"},{"bufferView":12,"componentType":5126,"count":72,"max":[0.125,0.375,0.125],"min":[-0.125,0,-0.125],"type":"VEC3"},{"bufferView":13,"componentType":5126,"count":72,"max":[0.9486833214759827,0.3162277638912201,0.9486833214759827],"min":[-0.9486833214759827,-1,-0.9486833214759827],"type":"VEC3"},{"bufferView":14,"componentType":5126,"count":72,"max":[0.0647047758102417,0.19764375686645508],"min":[0,0],"type":"VEC2"},{"bufferView":15,"componentType":5123,"count":72,"max":[71],"min":[0],"type":"SCALAR"},{"bufferView":16,"componentType":5126,"count":72,"max":[0.125,0.375,0.125],"min":[-0.125,0,-0.125],"type":"VEC3"},{"bufferView":17,"componentType":5126,"count":72,"max":[0.9486833214759827,0.3162277638912201,0.9486833214759827],"min":[-0.9486833214759827,-1,-0.9486833214759827],"type":"VEC3"},{"bufferView":18,"componentType":5126,"count":72,"max":[0.0647047758102417,0.19764375686645508],"min":[0,0],"type":"VEC2"},{"bufferView":19,"componentType":5123,"count":72,"max":[71],"min":[0],"type":"SCALAR"},{"bufferView":20,"componentType":5126,"count":72,"max":[0.125,0.375,0.125],"min":[-0.125,0,-0.125],"type":"VEC3"},{"bufferView":21,"componentType":5126,"count":72,"max":[0.9486833214759827,0.3162277638912201,0.9486833214759827],"min":[-0.9486833214759827,-1,-0.9486833214759827],"type":"VEC3"},{"bufferView":22,"componentType":5126,"count":72,"max":[0.0647047758102417,0.19764375686645508],"min":[0,0],"type":"VEC2"},{"bufferView":23,"componentType":5123,"count":72,"max":[71],"min":[0],"type":"SCALAR"}],"materials":[{"pbrMetallicRoughness":{"metallicFactor":0,"roughnessFactor":1},"alphaMode":"MASK","alphaCutoff":0.05,"doubleSided":true}],"meshes":[{"primitives":[{"mode":4,"attributes":{"POSITION":0,"NORMAL":1,"TEXCOORD_0":2},"indices":3,"material":0}]},{"primitives":[{"mode":4,"attributes":{"POSITION":4,"NORMAL":5,"TEXCOORD_0":6},"indices":7,"material":0}]},{"primitives":[{"mode":4,"attributes":{"POSITION":8,"NORMAL":9,"TEXCOORD_0":10},"indices":11,"material":0}]},{"primitives":[{"mode":4,"attributes":{"POSITION":12,"NORMAL":13,"TEXCOORD_0":14},"indices":15,"material":0}]},{"primitives":[{"mode":4,"attributes":{"POSITION":16,"NORMAL":17,"TEXCOORD_0":18},"indices":19,"material":0}]},{"primitives":[{"mode":4,"attributes":{"POSITION":20,"NORMAL":21,"TEXCOORD_0":22},"indices":23,"material":0}]}]}