{"asset":{"version":"2.0","generator":"Blockbench 4.11.2 glTF exporter"},"scenes":[{"nodes":[9],"name":"blockbench_export"}],"scene":0,"nodes":[{"name":"Glove-col","mesh":0},{"name":"Glove_selection","mesh":1},{"translation":[-0.09375,0.03125,-0.21875],"name":"Glove_selection","children":[0,1]},{"rotation":[-0.7071067811865475,0,0,0.7071067811865476],"name":"Sleeve","mesh":2},{"rotation":[-0.7071067811865475,0,0,0.7071067811865476],"name":"Sleeve_pART","mesh":3},{"rotation":[-0.7071067811865475,0,0,0.7071067811865476],"name":"SleeveOpening","mesh":4},{"rotation":[-0.7071067811865475,0,0,0.7071067811865476],"translation":[0,0,0.0006249999999999867],"name":"SleeveOpening","mesh":5},{"translation":[0,0,0.0625],"name":"Sleeve_pART","children":[3,4,5,6]},{"translation":[0.53125,0.6875,0.0625],"name":"BoxingGlove","children":[2,7]},{"children":[8]}],"bufferViews":[{"buffer":0,"byteOffset":0,"byteLength":7296,"target":34962,"byteStride":12},{"buffer":0,"byteOffset":7296,"byteLength":7296,"target":34962,"byteStride":12},{"buffer":0,"byteOffset":14592,"byteLength":4864,"target":34962,"byteStride":8},{"buffer":0,"byteOffset":19456,"byteLength":1740,"target":34963},{"buffer":0,"byteOffset":21196,"byteLength":1152,"target":34962,"byteStride":12},{"buffer":0,"byteOffset":22348,"byteLength":1152,"target":34962,"byteStride":12},{"buffer":0,"byteOffset":23500,"byteLength":768,"target":34962,"byteStride":8},{"buffer":0,"byteOffset":24268,"byteLength":288,"target":34963},{"buffer":0,"byteOffset":24556,"byteLength":1584,"target":34962,"byteStride":12},{"buffer":0,"byteOffset":26140,"byteLength":1584,"target":34962,"byteStride":12},{"buffer":0,"byteOffset":27724,"byteLength":1056,"target":34962,"byteStride":8},{"buffer":0,"byteOffset":28780,"byteLength":360,"target":34963},{"buffer":0,"byteOffset":29140,"byteLength":576,"target":34962,"byteStride":12},{"buffer":0,"byteOffset":29716,"byteLength":576,"target":34962,"byteStride":12},{"buffer":0,"byteOffset":30292,"byteLength":384,"target":34962,"byteStride":8},{"buffer":0,"byteOffset":30676,"byteLength":144,"target":34963},{"buffer":0,"byteOffset":30820,"byteLength":432,"target":34962,"byteStride":12},{"buffer":0,"byteOffset":31252,"byteLength":432,"target":34962,"byteStride":12},{"buffer":0,"byteOffset":31684,"byteLength":288,"target":34962,"byteStride":8},{"buffer":0,"byteOffset":31972,"byteLength":72,"target":34963},{"buffer":0,"byteOffset":32044,"byteLength":432,"target":34962,"byteStride":12},{"buffer":0,"byteOffset":32476,"byteLength":432,"target":34962,"byteStride":12},{"buffer":0,"byteOffset":32908,"byteLength":288,"target":34962,"byteStride":8},{"buffer":0,"byteOffset":33196,"byteLength":72,"target":34963},{"buffer":0,"byteOffset":33268,"byteLength":12},{"buffer":0,"byteOffset":33280,"byteLength":36},{"buffer":0,"byteOffset":33316,"byteLength":12},{"buffer":0,"byteOffset":33328,"byteLength":36},{"buffer":0,"byteOffset":33364,"byteLength":12},{"buffer":0,"byteOffset":33376,"byteLength":36}],"buffers":[{"byteLength":33412,"uri":"data:application/octet-stream;base64,"}],"accessors":[{"bufferView":0,"componentType":5126,"count":608,"max":[0.25,0.15625,0.28125],"min":[-0.125,-0.21875,-0.28125],"type":"VEC3"},{"bufferView":1,"componentType":5126,"count":608,"max":[1,1,1],"min":[-1,-1,-1],"type":"VEC3"},{"bufferView":2,"componentType":5126,"count":608,"max":[0.625,0.65625],"min":[0,0],"type":"VEC2"},{"bufferView":3,"componentType":5123,"count":870,"max":[607],"min":[0],"type":"SCALAR"},{"bufferView":4,"componentType":5126,"count":96,"max":[0.15625,0.15625,-0.2008928507566452],"min":[-0.03125,-0.125,-0.28125],"type":"VEC3"},{"bufferView":5,"componentType":5126,"count":96,"max":[0,0.650791347026825,-0.7592566013336182],"min":[0,0,-1],"type":"VEC3"},{"bufferView":6,"componentType":5126,"count":96,"max":[0.1875,0.37347501516342163],"min":[0,0],"type":"VEC2"},{"bufferView":7,"componentType":5123,"count":144,"max":[95],"min":[0],"type":"SCALAR"},{"bufferView":8,"componentType":5126,"count":132,"max":[0.125,0.125,0.125],"min":[-0.125,-0.0625,-0.125],"type":"VEC3"},{"bufferView":9,"componentType":5126,"count":132,"max":[1,1,1],"min":[-1,0,-1],"type":"VEC3"},{"bufferView":10,"componentType":5126,"count":132,"max":[0.5602812767028809,0.5],"min":[0.01875000074505806,0],"type":"VEC2"},{"bufferView":11,"componentType":5123,"count":180,"max":[131],"min":[0],"type":"SCALAR"},{"bufferView":12,"componentType":5126,"count":48,"max":[0.125,0.0625,0.125],"min":[-0.125,0,-0.125],"type":"VEC3"},{"bufferView":13,"componentType":5126,"count":48,"max":[1,0,1],"min":[-1,0,-1],"type":"VEC3"},{"bufferView":14,"componentType":5126,"count":48,"max":[0.5379812717437744,0.3125],"min":[0.024518750607967377,0],"type":"VEC2"},{"bufferView":15,"componentType":5123,"count":72,"max":[47],"min":[0],"type":"SCALAR"},{"bufferView":16,"componentType":5126,"count":36,"max":[0.125,-0.0625,0.125],"min":[-0.125,-0.0625,-0.125],"type":"VEC3"},{"bufferView":17,"componentType":5126,"count":36,"max":[0,-1,0],"min":[0,-1,0],"type":"VEC3"},{"bufferView":18,"componentType":5126,"count":36,"max":[0.16875000298023224,0.1875],"min":[0.01875000074505806,0.03750002384185791],"type":"VEC2"},{"bufferView":19,"componentType":5123,"count":36,"max":[35],"min":[0],"type":"SCALAR"},{"bufferView":20,"componentType":5126,"count":36,"max":[0.09375,-0.0625,0.09375],"min":[-0.09375,-0.0625,-0.09375],"type":"VEC3"},{"bufferView":21,"componentType":5126,"count":36,"max":[0,-1,0],"min":[0,-1,0],"type":"VEC3"},{"bufferView":22,"componentType":5126,"count":36,"max":[0.1875,0.1875],"min":[0,0],"type":"VEC2"},{"bufferView":23,"componentType":5123,"count":36,"max":[35],"min":[0],"type":"SCALAR"},{"bufferView":24,"componentType":5126,"count":3,"max":[0.2083333283662796],"min":[0],"type":"SCALAR"},{"bufferView":25,"componentType":5126,"count":3,"max":[2,1.7000000476837158,1],"min":[1,1,0.625],"type":"VEC3"},{"bufferView":26,"componentType":5126,"count":3,"max":[0.2083333283662796],"min":[0],"type":"SCALAR"},{"bufferView":27,"componentType":5126,"count":3,"max":[0.125,0,0.0625],"min":[0,0,0.0625],"type":"VEC3"},{"bufferView":28,"componentType":5126,"count":3,"max":[0.2083333283662796],"min":[0],"type":"SCALAR"},{"bufferView":29,"componentType":5126,"count":3,"max":[1.465000033378601,1.475000023841858,1],"min":[1,1,0.875],"type":"VEC3"}],"materials":[{"pbrMetallicRoughness":{"metallicFactor":0,"roughnessFactor":1,"baseColorTexture":{"index":0}},"alphaMode":"MASK","alphaCutoff":0.05,"doubleSided":true},{"pbrMetallicRoughness":{"metallicFactor":0,"roughnessFactor":1,"baseColorTexture":{"index":1}},"alphaMode":"MASK","alphaCutoff":0.05,"doubleSided":true},{"pbrMetallicRoughness":{"metallicFactor":0,"roughnessFactor":1,"baseColorTexture":{"index":2}},"alphaMode":"MASK","alphaCutoff":0.05,"doubleSided":true},{"pbrMetallicRoughness":{"metallicFactor":0,"roughnessFactor":1,"baseColorTexture":{"index":3}},"alphaMode":"MASK","alphaCutoff":0.05,"doubleSided":true},{"pbrMetallicRoughness":{"metallicFactor":0,"roughnessFactor":1,"baseColorTexture":{"index":4}},"alphaMode":"MASK","alphaCutoff":0.05,"doubleSided":true}],"textures":[{"sampler":0,"source":0,"name":"Glove"},{"sampler":1,"source":1,"name":"Glove Face"},{"sampler":2,"source":2,"name":"Sleeve"},{"sampler":3,"source":3,"name":"SleevePart"},{"sampler":4,"source":4,"name":"SleeveOpening"}],"samplers":[{"magFilter":9728,"minFilter":9728,"wrapS":33071,"wrapT":33071},{"magFilter":9728,"minFilter":9728,"wrapS":33071,"wrapT":33071},{"magFilter":9728,"minFilter":9728,"wrapS":33071,"wrapT":33071},{"magFilter":9728,"minFilter":9728,"wrapS":33071,"wrapT":33071},{"magFilter":9728,"minFilter":9728,"wrapS":33071,"wrapT":33071}],"images":[{"mimeType":"image/png","uri":"data:image/png;base64,"},{"mimeType":"image/png","uri":"data:image/png;base64,"},{"mimeType":"image/png","uri":"data:image/png;base64,"},{"mimeType":"image/png","uri":"data:image/png;base64,"},{"mimeType":"image/png","uri":"data:image/png;base64,"}],"meshes":[{"primitives":[{"mode":4,"attributes":{"POSITION":0,"NORMAL":1,"TEXCOORD_0":2},"indices":3,"material":0}]},{"primitives":[{"mode":4,"attributes":{"POSITION":4,"NORMAL":5,"TEXCOORD_0":6},"indices":7,"material":1}]},{"primitives":[{"mode":4,"attributes":{"POSITION":8,"NORMAL":9,"TEXCOORD_0":10},"indices":11,"material":2}]},{"primitives":[{"mode":4,"attributes":{"POSITION":12,"NORMAL":13,"TEXCOORD_0":14},"indices":15,"material":3}]},{"primitives":[{"mode":4,"attributes":{"POSITION":16,"NORMAL":17,"TEXCOORD_0":18},"indices":19,"material":2}]},{"primitives":[{"mode":4,"attributes":{"POSITION":20,"NORMAL":21,"TEXCOORD_0":22},"indices":23,"material":4}]}],"animations":[{"name":"PunchBounce","samplers":[{"input":24,"output":25,"interpolation":"LINEAR"},{"input":26,"output":27,"interpolation":"LINEAR"},{"input":28,"output":29,"interpolation":"LINEAR"}],"channels":[{"sampler":0,"target":{"node":2,"path":"scale"}},{"sampler":1,"target":{"node":7,"path":"translation"}},{"sampler":2,"target":{"node":7,"path":"scale"}}]}]}