{"asset":{"version":"2.0","generator":"Blockbench 4.11.2 glTF exporter"},"scenes":[{"nodes":[15],"name":"blockbench_export"}],"scene":0,"nodes":[{"rotation":[0.1521233861899167,0,0,0.9883615104677607],"translation":[0,0.46875,0.34375],"name":"Head-col","mesh":0},{"rotation":[0.25881904510252074,0,0,0.9659258262890683],"translation":[0,0.484375,-0.1875],"name":"Nose","mesh":1},{"translation":[-0.171875,0.59375,-0.078125],"name":"Eyes","mesh":2},{"rotation":[0.6935199226610737,-0.13794968964147147,0.1379496896414715,0.6935199226610738],"translation":[0.203125,0.5625,-0.125],"name":"EyeBags","mesh":3},{"rotation":[-0.06508464715365352,-0.9311100509380921,0.29357787137382907,0.20642212862617115],"translation":[0.078125,0.921875,0.765625],"name":"Hair","mesh":4},{"rotation":[0.1521233861899167,0,0,0.9883615104677607],"translation":[0,0.46875,0.34375],"name":"Back/SideHair","mesh":5},{"rotation":[0.8191520442889917,0,0,0.5735764363510462],"translation":[-0.5,0.421875,0.25],"name":"Ears","mesh":6},{"rotation":[-0.9940563382223196,-6.6661734910316944e-18,0.10886687485196457,6.086839563880512e-17],"name":"LowerLip","mesh":7},{"rotation":[0.5913096483635824,0,0,0.8064446042674827],"translation":[0.0625,0.15625,-0.125],"name":"Mouth","mesh":8},{"rotation":[0.03626819510153046,0.5550414532620519,0.024233633202732013,0.8306782374702146],"name":"Eyelids","mesh":9},{"translation":[-0.3125,0.59375,0.265625],"name":"Eyelids","children":[9]},{"name":"Teeth","mesh":10},{"translation":[0.03125,0.078125,0.3125],"name":"Mouth1","mesh":11},{"translation":[-0.03125,0.171875,-0.28125],"name":"Teeth","children":[11,12]},{"translation":[0,0.25,-0.34375],"name":"Head","children":[0,1,2,3,4,5,6,7,8,10,13]},{"children":[14]}],"bufferViews":[{"buffer":0,"byteOffset":0,"byteLength":3168,"target":34962,"byteStride":12},{"buffer":0,"byteOffset":3168,"byteLength":3168,"target":34962,"byteStride":12},{"buffer":0,"byteOffset":6336,"byteLength":2112,"target":34962,"byteStride":8},{"buffer":0,"byteOffset":8448,"byteLength":720,"target":34963},{"buffer":0,"byteOffset":9168,"byteLength":1920,"target":34962,"byteStride":12},{"buffer":0,"byteOffset":11088,"byteLength":1920,"target":34962,"byteStride":12},{"buffer":0,"byteOffset":13008,"byteLength":1280,"target":34962,"byteStride":8},{"buffer":0,"byteOffset":14288,"byteLength":408,"target":34963},{"buffer":0,"byteOffset":14696,"byteLength":6336,"target":34962,"byteStride":12},{"buffer":0,"byteOffset":21032,"byteLength":6336,"target":34962,"byteStride":12},{"buffer":0,"byteOffset":27368,"byteLength":4224,"target":34962,"byteStride":8},{"buffer":0,"byteOffset":31592,"byteLength":1440,"target":34963},{"buffer":0,"byteOffset":33032,"byteLength":480,"target":34962,"byteStride":12},{"buffer":0,"byteOffset":33512,"byteLength":480,"target":34962,"byteStride":12},{"buffer":0,"byteOffset":33992,"byteLength":320,"target":34962,"byteStride":8},{"buffer":0,"byteOffset":34312,"byteLength":120,"target":34963},{"buffer":0,"byteOffset":34432,"byteLength":2928,"target":34962,"byteStride":12},{"buffer":0,"byteOffset":37360,"byteLength":2928,"target":34962,"byteStride":12},{"buffer":0,"byteOffset":40288,"byteLength":1952,"target":34962,"byteStride":8},{"buffer":0,"byteOffset":42240,"byteLength":732,"target":34963},{"buffer":0,"byteOffset":42972,"byteLength":1152,"target":34962,"byteStride":12},{"buffer":0,"byteOffset":44124,"byteLength":1152,"target":34962,"byteStride":12},{"buffer":0,"byteOffset":45276,"byteLength":768,"target":34962,"byteStride":8},{"buffer":0,"byteOffset":46044,"byteLength":276,"target":34963},{"buffer":0,"byteOffset":46320,"byteLength":4032,"target":34962,"byteStride":12},{"buffer":0,"byteOffset":50352,"byteLength":4032,"target":34962,"byteStride":12},{"buffer":0,"byteOffset":54384,"byteLength":2688,"target":34962,"byteStride":8},{"buffer":0,"byteOffset":57072,"byteLength":864,"target":34963},{"buffer":0,"byteOffset":57936,"byteLength":1440,"target":34962,"byteStride":12},{"buffer":0,"byteOffset":59376,"byteLength":1440,"target":34962,"byteStride":12},{"buffer":0,"byteOffset":60816,"byteLength":960,"target":34962,"byteStride":8},{"buffer":0,"byteOffset":61776,"byteLength":288,"target":34963},{"buffer":0,"byteOffset":62064,"byteLength":240,"target":34962,"byteStride":12},{"buffer":0,"byteOffset":62304,"byteLength":240,"target":34962,"byteStride":12},{"buffer":0,"byteOffset":62544,"byteLength":160,"target":34962,"byteStride":8},{"buffer":0,"byteOffset":62704,"byteLength":60,"target":34963},{"buffer":0,"byteOffset":62764,"byteLength":2304,"target":34962,"byteStride":12},{"buffer":0,"byteOffset":65068,"byteLength":2304,"target":34962,"byteStride":12},{"buffer":0,"byteOffset":67372,"byteLength":1536,"target":34962,"byteStride":8},{"buffer":0,"byteOffset":68908,"byteLength":504,"target":34963},{"buffer":0,"byteOffset":69412,"byteLength":1728,"target":34962,"byteStride":12},{"buffer":0,"byteOffset":71140,"byteLength":1728,"target":34962,"byteStride":12},{"buffer":0,"byteOffset":72868,"byteLength":1152,"target":34962,"byteStride":8},{"buffer":0,"byteOffset":74020,"byteLength":432,"target":34963},{"buffer":0,"byteOffset":74452,"byteLength":3264,"target":34962,"byteStride":12},{"buffer":0,"byteOffset":77716,"byteLength":3264,"target":34962,"byteStride":12},{"buffer":0,"byteOffset":80980,"byteLength":2176,"target":34962,"byteStride":8},{"buffer":0,"byteOffset":83156,"byteLength":744,"target":34963},{"buffer":0,"byteOffset":83900,"byteLength":20},{"buffer":0,"byteOffset":83920,"byteLength":60},{"buffer":0,"byteOffset":83980,"byteLength":20},{"buffer":0,"byteOffset":84000,"byteLength":60},{"buffer":0,"byteOffset":84060,"byteLength":12},{"buffer":0,"byteOffset":84072,"byteLength":48},{"buffer":0,"byteOffset":84120,"byteLength":12},{"buffer":0,"byteOffset":84132,"byteLength":36},{"buffer":0,"byteOffset":84168,"byteLength":12},{"buffer":0,"byteOffset":84180,"byteLength":48},{"buffer":0,"byteOffset":84228,"byteLength":12},{"buffer":0,"byteOffset":84240,"byteLength":36}],"buffers":[{"byteLength":84276,"uri":"data:application/octet-stream;base64,"}],"accessors":[{"bufferView":0,"componentType":5126,"count":264,"max":[0.46875,0.59375,0.44039270281791687],"min":[-0.46875,-0.6125441193580627,-0.5],"type":"VEC3"},{"bufferView":1,"componentType":5126,"count":264,"max":[0.9906818866729736,0.952923595905304,0.9997268319129944],"min":[-0.9951052069664001,-0.952923595905304,-0.975475549697876],"type":"VEC3"},{"bufferView":2,"componentType":5126,"count":264,"max":[0.6180912852287292,0.6349703073501587],"min":[0,0],"type":"VEC2"},{"bufferView":3,"componentType":5123,"count":360,"max":[263],"min":[0],"type":"SCALAR"},{"bufferView":4,"componentType":5126,"count":160,"max":[0.078125,0.3000926971435547,0.11390702426433563],"min":[-0.078125,-0.046875,-0.09375],"type":"VEC3"},{"bufferView":5,"componentType":5126,"count":160,"max":[1,0.924585223197937,1],"min":[-1,-1,-1],"type":"VEC3"},{"bufferView":6,"componentType":5126,"count":160,"max":[0.125,0.13975626230239868],"min":[0,0],"type":"VEC2"},{"bufferView":7,"componentType":5123,"count":204,"max":[159],"min":[0],"type":"SCALAR"},{"bufferView":8,"componentType":5126,"count":528,"max":[0.4375,0.0859375,0.0859375],"min":[-0.0859375,-0.0859375,-0.0859375],"type":"VEC3"},{"bufferView":9,"componentType":5126,"count":528,"max":[0.9659258127212524,0.9659258127212524,0.9659258127212524],"min":[-0.9659258127212524,-0.9659258127212524,-0.9659258127212524],"type":"VEC3"},{"bufferView":10,"componentType":5126,"count":528,"max":[0.864622950553894,0.8260155320167542],"min":[0.0075927190482616425,0],"type":"VEC2"},{"bufferView":11,"componentType":5123,"count":720,"max":[527],"min":[0],"type":"SCALAR"},{"bufferView":12,"componentType":5126,"count":40,"max":[0.09375,0.2128223031759262,0.09375],"min":[-0.43001019954681396,0,0.018840176984667778],"type":"VEC3"},{"bufferView":13,"componentType":5126,"count":40,"max":[0.6755902171134949,1,2.2098179033446397e-15],"min":[0,0.7372773289680481,-3.0691916971239616e-15],"type":"VEC3"},{"bufferView":14,"componentType":5126,"count":40,"max":[0.1875,0.375],"min":[0,0],"type":"VEC2"},{"bufferView":15,"componentType":5123,"count":60,"max":[39],"min":[0],"type":"SCALAR"},{"bufferView":16,"componentType":5126,"count":244,"max":[0.4330040216445923,0.556029200553894,0.852726399898529],"min":[-0.5948149561882019,-0.11903037875890732,-0.21875],"type":"VEC3"},{"bufferView":17,"componentType":5126,"count":244,"max":[0.9597135186195374,0.9998162984848022,0.3762626349925995],"min":[-0.7719787955284119,0.09616062045097351,-0.9532799124717712],"type":"VEC3"},{"bufferView":18,"componentType":5126,"count":244,"max":[0.8125,0.9258930683135986],"min":[0,0],"type":"VEC2"},{"bufferView":19,"componentType":5123,"count":366,"max":[243],"min":[0],"type":"SCALAR"},{"bufferView":20,"componentType":5126,"count":96,"max":[0.484375,0.5298275947570801,0.47945520281791687],"min":[-0.484375,-0.33129411935806274,-0.3560498058795929],"type":"VEC3"},{"bufferView":21,"componentType":5126,"count":96,"max":[0.9954100251197815,0.6670103073120117,0.9996912479400635],"min":[-0.9954100251197815,-0.23326589167118073,-0.3621421158313751],"type":"VEC3"},{"bufferView":22,"componentType":5126,"count":96,"max":[0.84375,0.8756543397903442],"min":[0,0],"type":"VEC2"},{"bufferView":23,"componentType":5123,"count":138,"max":[95],"min":[0],"type":"SCALAR"},{"bufferView":24,"componentType":5126,"count":336,"max":[1.09375,0.0625,0.125],"min":[-0.09375,-5.551115123125783e-17,-0.125],"type":"VEC3"},{"bufferView":25,"componentType":5126,"count":336,"max":[1,1,1],"min":[-1,-1,-1],"type":"VEC3"},{"bufferView":26,"componentType":5126,"count":336,"max":[1,1],"min":[0,0],"type":"VEC2"},{"bufferView":27,"componentType":5123,"count":432,"max":[335],"min":[0],"type":"SCALAR"},{"bufferView":28,"componentType":5126,"count":120,"max":[0.14633998274803162,0.03125,0.20164349675178528],"min":[-0.1328125,-0.078125,-0.140625],"type":"VEC3"},{"bufferView":29,"componentType":5126,"count":120,"max":[0.9948659539222717,0.9885478615760803,1],"min":[-1,-1,-1],"type":"VEC3"},{"bufferView":30,"componentType":5126,"count":120,"max":[0.7946375012397766,0.671875],"min":[0,0],"type":"VEC2"},{"bufferView":31,"componentType":5123,"count":144,"max":[119],"min":[0],"type":"SCALAR"},{"bufferView":32,"componentType":5126,"count":20,"max":[0.125,0.0625,0.140625],"min":[-0.265625,-1.0408340855860843e-17,-0.09375],"type":"VEC3"},{"bufferView":33,"componentType":5126,"count":20,"max":[0.6246950626373291,1,4.440892164675075e-17],"min":[-0.5144957304000854,0.7808688282966614,-2.0185873776588746e-17],"type":"VEC3"},{"bufferView":34,"componentType":5126,"count":20,"max":[0.3502437472343445,0.4375],"min":[0,0],"type":"VEC2"},{"bufferView":35,"componentType":5123,"count":30,"max":[19],"min":[0],"type":"SCALAR"},{"bufferView":36,"componentType":5126,"count":192,"max":[0.5868772864341736,0.078125,0.41722118854522705],"min":[0.28125,-0.020522382110357285,-0.109375],"type":"VEC3"},{"bufferView":37,"componentType":5126,"count":192,"max":[0.9688040614128113,0.9895391464233398,0.9391847252845764],"min":[-0.8683434724807739,0.20622599124908447,-0.958471953868866],"type":"VEC3"},{"bufferView":38,"componentType":5126,"count":192,"max":[0.5,0.5625],"min":[0.006366037763655186,0.1875],"type":"VEC2"},{"bufferView":39,"componentType":5123,"count":252,"max":[191],"min":[0],"type":"SCALAR"},{"bufferView":40,"componentType":5126,"count":144,"max":[0.25189563632011414,0.0859375,0.12689563632011414],"min":[-0.17377063632011414,-0.0078125,-0.015625],"type":"VEC3"},{"bufferView":41,"componentType":5126,"count":144,"max":[1,1,1],"min":[-1,-1,-1],"type":"VEC3"},{"bufferView":42,"componentType":5126,"count":144,"max":[0.6875,0.6875],"min":[0,0],"type":"VEC2"},{"bufferView":43,"componentType":5123,"count":216,"max":[143],"min":[0],"type":"SCALAR"},{"bufferView":44,"componentType":5126,"count":272,"max":[0.3125,0.25,0.375],"min":[-0.3125,-0.03125,-0.375],"type":"VEC3"},{"bufferView":45,"componentType":5126,"count":272,"max":[1,1,1],"min":[-1,-1,-1],"type":"VEC3"},{"bufferView":46,"componentType":5126,"count":272,"max":[0.9593062400817871,0.8125],"min":[0,0],"type":"VEC2"},{"bufferView":47,"componentType":5123,"count":372,"max":[271],"min":[0],"type":"SCALAR"},{"bufferView":48,"componentType":5126,"count":5,"max":[1],"min":[0],"type":"SCALAR"},{"bufferView":49,"componentType":5126,"count":5,"max":[0,0.296875,-0.34375],"min":[0,0.1875,-0.34375],"type":"VEC3"},{"bufferView":50,"componentType":5126,"count":5,"max":[1],"min":[0],"type":"SCALAR"},{"bufferView":51,"componentType":5126,"count":5,"max":[1.225000023841858,1.0499999523162842,1.125],"min":[0.9750000238418579,0.9750000238418579,0.9750000238418579],"type":"VEC3"},{"bufferView":52,"componentType":5126,"count":3,"max":[0.7083333134651184],"min":[0],"type":"SCALAR"},{"bufferView":53,"componentType":5126,"count":3,"max":[0.19509032368659973,0,0,1],"min":[0,0,0,0.9807852506637573],"type":"VEC4"},{"bufferView":54,"componentType":5126,"count":3,"max":[0.7083333134651184],"min":[0],"type":"SCALAR"},{"bufferView":55,"componentType":5126,"count":3,"max":[-0.3125,0.59375,0.265625],"min":[-0.3125,0.46875,0.25],"type":"VEC3"},{"bufferView":56,"componentType":5126,"count":3,"max":[0.5416666865348816],"min":[0],"type":"SCALAR"},{"bufferView":57,"componentType":5126,"count":3,"max":[0,0,0,1],"min":[-0.08715574443340302,0,0,0.9961947202682495],"type":"VEC4"},{"bufferView":58,"componentType":5126,"count":3,"max":[0.5416666865348816],"min":[0],"type":"SCALAR"},{"bufferView":59,"componentType":5126,"count":3,"max":[-0.03125,0.171875,-0.234375],"min":[-0.03125,0.09375,-0.28125],"type":"VEC3"}],"materials":[{"pbrMetallicRoughness":{"metallicFactor":0,"roughnessFactor":1,"baseColorTexture":{"index":0}},"alphaMode":"MASK","alphaCutoff":0.05,"doubleSided":true},{"pbrMetallicRoughness":{"metallicFactor":0,"roughnessFactor":1,"baseColorTexture":{"index":1}},"alphaMode":"MASK","alphaCutoff":0.05,"doubleSided":true},{"pbrMetallicRoughness":{"metallicFactor":0,"roughnessFactor":1,"baseColorTexture":{"index":2}},"alphaMode":"MASK","alphaCutoff":0.05,"doubleSided":true},{"pbrMetallicRoughness":{"metallicFactor":0,"roughnessFactor":1,"baseColorTexture":{"index":3}},"alphaMode":"MASK","alphaCutoff":0.05,"doubleSided":true},{"pbrMetallicRoughness":{"metallicFactor":0,"roughnessFactor":1,"baseColorTexture":{"index":4}},"alphaMode":"MASK","alphaCutoff":0.05,"doubleSided":true},{"pbrMetallicRoughness":{"metallicFactor":0,"roughnessFactor":1,"baseColorTexture":{"index":5}},"alphaMode":"MASK","alphaCutoff":0.05,"doubleSided":true},{"pbrMetallicRoughness":{"metallicFactor":0,"roughnessFactor":1,"baseColorTexture":{"index":6}},"alphaMode":"MASK","alphaCutoff":0.05,"doubleSided":true},{"pbrMetallicRoughness":{"metallicFactor":0,"roughnessFactor":1,"baseColorTexture":{"index":7}},"alphaMode":"MASK","alphaCutoff":0.05,"doubleSided":true},{"pbrMetallicRoughness":{"metallicFactor":0,"roughnessFactor":1,"baseColorTexture":{"index":8}},"alphaMode":"MASK","alphaCutoff":0.05,"doubleSided":true},{"pbrMetallicRoughness":{"metallicFactor":0,"roughnessFactor":1,"baseColorTexture":{"index":9}},"alphaMode":"MASK","alphaCutoff":0.05,"doubleSided":true},{"pbrMetallicRoughness":{"metallicFactor":0,"roughnessFactor":1,"baseColorTexture":{"index":10}},"alphaMode":"MASK","alphaCutoff":0.05,"doubleSided":true},{"pbrMetallicRoughness":{"metallicFactor":0,"roughnessFactor":1,"baseColorTexture":{"index":11}},"alphaMode":"MASK","alphaCutoff":0.05,"doubleSided":true}],"textures":[{"sampler":0,"source":0,"name":"Head"},{"sampler":1,"source":1,"name":"Nose"},{"sampler":2,"source":2,"name":"Eyes"},{"sampler":3,"source":3,"name":"EyeBags"},{"sampler":4,"source":4,"name":"Hair"},{"sampler":5,"source":5,"name":"SideHair"},{"sampler":6,"source":6,"name":"Ears"},{"sampler":7,"source":7,"name":"LowerLip"},{"sampler":8,"source":8,"name":"Mouth"},{"sampler":9,"source":9,"name":"Eyelids\\"},{"sampler":10,"source":10,"name":"Teeth"},{"sampler":11,"source":11,"name":"Mouth"}],"samplers":[{"magFilter":9728,"minFilter":9728,"wrapS":33071,"wrapT":33071},{"magFilter":9728,"minFilter":9728,"wrapS":33071,"wrapT":33071},{"magFilter":9728,"minFilter":9728,"wrapS":33071,"wrapT":33071},{"magFilter":9728,"minFilter":9728,"wrapS":33071,"wrapT":33071},{"magFilter":9728,"minFilter":9728,"wrapS":33071,"wrapT":33071},{"magFilter":9728,"minFilter":9728,"wrapS":33071,"wrapT":33071},{"magFilter":9728,"minFilter":9728,"wrapS":33071,"wrapT":33071},{"magFilter":9728,"minFilter":9728,"wrapS":33071,"wrapT":33071},{"magFilter":9728,"minFilter":9728,"wrapS":33071,"wrapT":33071},{"magFilter":9728,"minFilter":9728,"wrapS":33071,"wrapT":33071},{"magFilter":9728,"minFilter":9728,"wrapS":33071,"wrapT":33071},{"magFilter":9728,"minFilter":9728,"wrapS":33071,"wrapT":33071}],"images":[{"mimeType":"image/png","uri":"data:image/png;base64,"},{"mimeType":"image/png","uri":"data:image/png;base64,"},{"mimeType":"image/png","uri":"data:image/png;base64,"},{"mimeType":"image/png","uri":"data:image/png;base64,"},{"mimeType":"image/png","uri":"data:image/png;base64,"},{"mimeType":"image/png","uri":"data:image/png;base64,"},{"mimeType":"image/png","uri":"data:image/png;base64,"},{"mimeType":"image/png","uri":"data:image/png;base64,"},{"mimeType":"image/png","uri":"data:image/png;base64,"},{"mimeType":"image/png","uri":"data:image/png;base64,"},{"mimeType":"image/png","uri":"data:image/png;base64,"},{"mimeType":"image/png","uri":"data:image/png;base64,"}],"meshes":[{"primitives":[{"mode":4,"attributes":{"POSITION":0,"NORMAL":1,"TEXCOORD_0":2},"indices":3,"material":0}]},{"primitives":[{"mode":4,"attributes":{"POSITION":4,"NORMAL":5,"TEXCOORD_0":6},"indices":7,"material":1}]},{"primitives":[{"mode":4,"attributes":{"POSITION":8,"NORMAL":9,"TEXCOORD_0":10},"indices":11,"material":2}]},{"primitives":[{"mode":4,"attributes":{"POSITION":12,"NORMAL":13,"TEXCOORD_0":14},"indices":15,"material":3}]},{"primitives":[{"mode":4,"attributes":{"POSITION":16,"NORMAL":17,"TEXCOORD_0":18},"indices":19,"material":4}]},{"primitives":[{"mode":4,"attributes":{"POSITION":20,"NORMAL":21,"TEXCOORD_0":22},"indices":23,"material":5}]},{"primitives":[{"mode":4,"attributes":{"POSITION":24,"NORMAL":25,"TEXCOORD_0":26},"indices":27,"material":6}]},{"primitives":[{"mode":4,"attributes":{"POSITION":28,"NORMAL":29,"TEXCOORD_0":30},"indices":31,"material":7}]},{"primitives":[{"mode":4,"attributes":{"POSITION":32,"NORMAL":33,"TEXCOORD_0":34},"indices":35,"material":8}]},{"primitives":[{"mode":4,"attributes":{"POSITION":36,"NORMAL":37,"TEXCOORD_0":38},"indices":39,"material":9}]},{"primitives":[{"mode":4,"attributes":{"POSITION":40,"NORMAL":41,"TEXCOORD_0":42},"indices":43,"material":10}]},{"primitives":[{"mode":4,"attributes":{"POSITION":44,"NORMAL":45,"TEXCOORD_0":46},"indices":47,"material":11}]}],"animations":[{"name":"Move","samplers":[{"input":48,"output":49,"interpolation":"LINEAR"},{"input":50,"output":51,"interpolation":"LINEAR"},{"input":52,"output":53,"interpolation":"LINEAR"},{"input":54,"output":55,"interpolation":"LINEAR"},{"input":56,"output":57,"interpolation":"LINEAR"},{"input":58,"output":59,"interpolation":"LINEAR"}],"channels":[{"sampler":0,"target":{"node":14,"path":"translation"}},{"sampler":1,"target":{"node":14,"path":"scale"}},{"sampler":2,"target":{"node":10,"path":"rotation"}},{"sampler":3,"target":{"node":10,"path":"translation"}},{"sampler":4,"target":{"node":13,"path":"rotation"}},{"sampler":5,"target":{"node":13,"path":"translation"}}]}]}